<svg version="1.1" id="Layer_1" xmlns="http://www.w3.org/2000/svg" xmlns:xlink="http://www.w3.org/1999/xlink" x="0px" y="0px"
	 width="100%" viewBox="0 0 270 270" enable-background="new 0 0 270 270" xml:space="preserve">
<path fill="#212A39" opacity="1.000000" stroke="none" 
	d="
M124.000000,271.000000 
	C82.666664,271.000000 41.833332,271.000000 1.000000,271.000000 
	C1.000000,181.000000 1.000000,91.000000 1.000000,1.000000 
	C91.000000,1.000000 181.000000,1.000000 271.000000,1.000000 
	C271.000000,91.000000 271.000000,181.000000 271.000000,271.000000 
	C222.166672,271.000000 173.333328,271.000000 124.000000,271.000000 
M230.127472,107.140419 
	C229.989243,99.404518 229.851013,91.668610 229.210159,83.469452 
	C220.434402,81.828217 211.700195,79.070923 202.875580,78.742531 
	C168.111984,77.448883 144.001190,97.185425 139.635284,130.617691 
	C136.984985,150.912643 140.811218,169.719910 156.191986,184.858841 
	C175.048172,203.418503 209.355072,201.465469 227.297714,193.762039 
	C228.182983,193.381989 229.281754,192.158539 229.299225,191.307663 
	C229.455109,183.713486 229.390060,176.114777 229.390060,168.277145 
	C225.057999,170.251373 221.573242,172.324615 217.806839,173.478760 
	C189.000107,182.306091 168.054932,169.073074 166.420532,142.646988 
	C164.158340,106.070312 194.774353,94.767014 218.604797,104.238289 
	C222.193268,105.664505 225.969818,106.617439 230.127472,107.140419 
M47.757187,166.623184 
	C47.504623,171.699295 47.040455,176.777008 47.078808,181.850922 
	C47.101841,184.898026 47.908905,187.939209 48.767807,191.622726 
	C49.253727,192.054718 49.668285,192.660797 50.235905,192.893478 
	C69.131447,200.639526 88.487038,202.296448 107.633980,194.788788 
	C130.215210,185.934509 135.428604,156.524780 117.656548,140.040451 
	C113.708908,136.378845 108.731255,133.688461 103.919968,131.129883 
	C96.738365,127.310829 89.169243,124.220261 81.989510,120.398018 
	C77.943520,118.244080 75.554703,114.472031 76.166718,109.641068 
	C76.791725,104.707542 80.329521,101.632248 84.764565,101.070648 
	C91.272362,100.246590 98.052734,99.796776 104.492523,100.732361 
	C110.497818,101.604828 116.209991,104.494888 122.377647,106.608727 
	C122.377647,99.532547 122.510315,92.404808 122.233788,85.292969 
	C122.192581,84.233299 120.394409,82.701027 119.125755,82.312508 
	C104.154388,77.727730 88.997932,77.020294 73.835403,81.186775 
	C48.586239,88.124947 44.330189,110.164391 51.422115,126.750862 
	C55.251247,135.706375 63.016697,140.670258 71.352188,144.778397 
	C78.503540,148.302933 85.918175,151.329742 92.893204,155.164474 
	C98.847855,158.438217 101.288536,163.794998 99.778572,168.765198 
	C98.029114,174.523682 93.180832,176.401154 87.878220,177.152756 
	C75.258713,178.941452 63.815987,175.777817 53.342896,168.633453 
	C51.845406,167.611908 49.951408,167.171631 47.757187,166.623184 
z"/>
<path fill="#818CF0" opacity="1.000000" stroke="none" 
	d="
M48.240913,166.462357 
	C49.951408,167.171631 51.845406,167.611908 53.342896,168.633453 
	C63.815987,175.777817 75.258713,178.941452 87.878220,177.152756 
	C93.180832,176.401154 98.029114,174.523682 99.778572,168.765198 
	C101.288536,163.794998 98.847855,158.438217 92.893204,155.164474 
	C85.918175,151.329742 78.503540,148.302933 71.352188,144.778397 
	C63.016697,140.670258 55.251247,135.706375 51.422115,126.750862 
	C44.330189,110.164391 48.586239,88.124947 73.835403,81.186775 
	C88.997932,77.020294 104.154388,77.727730 119.125755,82.312508 
	C120.394409,82.701027 122.192581,84.233299 122.233788,85.292969 
	C122.510315,92.404808 122.377647,99.532547 122.377647,106.608727 
	C116.209991,104.494888 110.497818,101.604828 104.492523,100.732361 
	C98.052734,99.796776 91.272362,100.246590 84.764565,101.070648 
	C80.329521,101.632248 76.791725,104.707542 76.166718,109.641068 
	C75.554703,114.472031 77.943520,118.244080 81.989510,120.398018 
	C89.169243,124.220261 96.738365,127.310829 103.919968,131.129883 
	C108.731255,133.688461 113.708908,136.378845 117.656548,140.040451 
	C135.428604,156.524780 130.215210,185.934509 107.633980,194.788788 
	C88.487038,202.296448 69.131447,200.639526 50.235905,192.893478 
	C49.668285,192.660797 49.253727,192.054718 48.681202,190.851807 
	C48.476700,182.208054 48.358807,174.335205 48.240913,166.462357 
z"/>
<path fill="#818CF1" opacity="1.000000" stroke="none" 
	d="
M229.659363,107.789307 
	C225.969818,106.617439 222.193268,105.664505 218.604797,104.238289 
	C194.774353,94.767014 164.158340,106.070312 166.420532,142.646988 
	C168.054932,169.073074 189.000107,182.306091 217.806839,173.478760 
	C221.573242,172.324615 225.057999,170.251373 229.390060,168.277145 
	C229.390060,176.114777 229.455109,183.713486 229.299225,191.307663 
	C229.281754,192.158539 228.182983,193.381989 227.297714,193.762039 
	C209.355072,201.465469 175.048172,203.418503 156.191986,184.858841 
	C140.811218,169.719910 136.984985,150.912643 139.635284,130.617691 
	C144.001190,97.185425 168.111984,77.448883 202.875580,78.742531 
	C211.700195,79.070923 220.434402,81.828217 229.362213,84.163879 
	C229.562622,92.501976 229.611008,100.145645 229.659363,107.789307 
z"/>
<path fill="#131D3E" opacity="1.000000" stroke="none" 
	d="
M47.999050,166.542770 
	C48.358807,174.335205 48.476700,182.208054 48.479103,190.531982 
	C47.908905,187.939209 47.101841,184.898026 47.078808,181.850922 
	C47.040455,176.777008 47.504623,171.699295 47.999050,166.542770 
z"/>
<path fill="#151F3E" opacity="1.000000" stroke="none" 
	d="
M229.893433,107.464859 
	C229.611008,100.145645 229.562622,92.501976 229.613525,84.395508 
	C229.851013,91.668610 229.989243,99.404518 229.893433,107.464859 
z"/>
</svg>